<?xml version="1.0" standalone="no"?>
<!DOCTYPE svg PUBLIC "-//W3C//DTD SVG 20010904//EN"
 "http://www.w3.org/TR/2001/REC-SVG-20010904/DTD/svg10.dtd">
<svg version="1.0" xmlns="http://www.w3.org/2000/svg"
 width="1440.000000pt" height="1440.000000pt" viewBox="0 0 1440.000000 1440.000000"
 preserveAspectRatio="xMidYMid meet">
<metadata>
Created by potrace 1.16, written by Peter Selinger 2001-2019
</metadata>
<g transform="translate(0.000000,1440.000000) scale(0.100000,-0.100000)"
fill="#000000" stroke="none">
<path d="M10870 9633 c-234 -38 -440 -118 -588 -227 -430 -318 -619 -836 -491
-1345 102 -409 410 -741 819 -886 122 -44 260 -65 414 -65 163 1 254 15 386
60 333 114 588 334 738 635 140 282 173 577 98 877 -141 562 -657 963 -1231
957 -66 -1 -131 -4 -145 -6z m304 -438 c145 -27 308 -113 434 -228 56 -52 153
-198 182 -275 85 -224 83 -458 -5 -650 -118 -257 -328 -429 -594 -484 -78 -16
-118 -19 -216 -14 -125 6 -184 18 -276 57 -187 79 -336 213 -417 375 -65 130
-102 280 -102 409 2 265 152 539 377 685 181 119 409 165 617 125z"/>
<path d="M8795 8533 c-120 -15 -547 -68 -775 -98 -399 -51 -633 -82 -815 -105
-88 -11 -203 -26 -255 -34 -52 -8 -135 -18 -185 -21 -479 -34 -875 -386 -976
-865 -11 -52 -22 -97 -25 -99 -4 -5 -307 -88 -709 -195 -154 -41 -444 -120
-645 -175 -201 -55 -399 -108 -440 -119 -41 -11 -250 -68 -465 -126 -214 -58
-491 -134 -615 -167 -339 -92 -359 -98 -440 -141 -223 -117 -368 -396 -331
-635 24 -158 83 -281 180 -380 140 -143 336 -213 531 -191 36 4 182 40 325 78
143 39 386 105 540 146 154 41 393 106 530 144 138 38 369 100 515 139 146 38
364 97 485 130 121 33 353 96 516 140 162 44 303 83 312 86 13 6 22 -14 51
-107 19 -62 76 -246 126 -408 108 -349 122 -389 161 -457 67 -117 191 -218
338 -276 153 -60 356 -45 520 38 168 85 302 269 336 460 13 72 6 191 -14 273
-11 45 -59 206 -106 359 -48 153 -103 330 -122 393 -55 178 -82 267 -113 365
-16 50 -26 93 -22 96 4 4 171 53 372 109 201 56 385 108 410 116 25 7 56 15
70 18 14 2 36 9 50 15 14 5 70 22 125 37 55 15 159 44 230 65 72 20 236 67
365 104 129 37 258 78 285 92 200 100 345 331 345 551 0 157 -62 324 -159 434
-64 70 -172 143 -263 174 -61 22 -88 27 -188 38 -14 1 -38 1 -55 -1z m103
-449 c100 -42 147 -138 117 -241 -16 -55 -67 -110 -120 -130 -17 -6 -151 -45
-300 -87 -148 -41 -439 -123 -645 -182 -206 -59 -391 -110 -410 -114 -19 -5
-57 -15 -85 -23 -27 -8 -175 -51 -328 -95 -152 -44 -292 -89 -309 -99 -49 -28
-94 -94 -102 -147 -9 -59 -29 13 248 -881 174 -563 196 -638 196 -674 0 -122
-99 -221 -222 -221 -51 0 -135 46 -165 91 -14 21 -53 129 -88 241 -35 112
-125 403 -200 648 -75 245 -169 546 -207 670 -65 208 -71 233 -75 337 -5 95
-2 122 17 185 65 218 224 388 420 449 37 11 214 39 415 64 193 24 523 67 735
94 212 28 480 62 595 76 116 14 253 32 305 39 130 19 164 19 208 0z m-3078
-1217 c0 -2 27 -93 60 -202 41 -139 56 -201 48 -206 -10 -6 -204 -60 -448
-123 -52 -14 -259 -70 -460 -125 -201 -55 -408 -111 -460 -124 -103 -27 -608
-164 -1135 -308 -501 -137 -505 -139 -575 -154 -86 -19 -127 -18 -175 4 -81
38 -125 106 -125 196 0 80 44 155 112 191 14 7 138 43 275 79 136 36 403 108
593 160 513 139 1234 335 1320 357 114 29 796 216 870 238 61 18 100 24 100
17z"/>
</g>
</svg>
