<?xml version="1.0" standalone="no"?>
<!DOCTYPE svg PUBLIC "-//W3C//DTD SVG 20010904//EN"
 "http://www.w3.org/TR/2001/REC-SVG-20010904/DTD/svg10.dtd">
<svg version="1.0" xmlns="http://www.w3.org/2000/svg"
 width="1440.000000pt" height="1440.000000pt" viewBox="0 0 1440.000000 1440.000000"
 preserveAspectRatio="xMidYMid meet">
<metadata>
Created by potrace 1.16, written by Peter Selinger 2001-2019
</metadata>
<g transform="translate(0.000000,1440.000000) scale(0.100000,-0.100000)"
fill="#000000" stroke="none">
<path d="M7343 8298 c-247 -16 -465 -115 -654 -295 -139 -133 -240 -304 -295
-498 -27 -94 -29 -112 -29 -290 0 -104 7 -311 15 -460 8 -148 14 -288 15 -310
l0 -40 -470 -7 c-258 -3 -659 -9 -890 -12 -631 -8 -1913 -26 -2140 -30 -178
-3 -209 -6 -282 -28 -229 -69 -404 -263 -449 -496 -17 -91 -17 -145 1 -245 41
-235 229 -435 470 -503 70 -20 216 -20 1330 -4 374 5 1018 14 1430 20 413 5
840 12 951 15 l200 4 64 -71 c186 -207 468 -274 730 -171 192 75 345 261 388
470 16 79 15 102 -12 628 -16 300 -27 547 -25 549 2 2 310 -201 684 -450 374
-250 696 -458 715 -464 113 -32 312 12 427 96 181 132 273 306 274 515 1 158
-43 290 -138 406 -70 86 -169 160 -256 191 -34 12 -83 47 -161 117 -62 55
-141 125 -176 155 -36 30 -103 89 -150 130 -47 42 -119 105 -160 140 -42 36
-202 175 -355 310 -154 134 -350 305 -435 379 -85 75 -168 148 -185 164 -34
32 -86 61 -130 72 -55 14 -199 20 -302 13z m325 -566 c235 -205 238 -209 444
-387 56 -49 164 -144 239 -210 74 -66 164 -145 200 -175 35 -30 84 -73 109
-96 25 -22 59 -52 75 -66 17 -14 107 -92 200 -174 193 -169 208 -180 275 -200
166 -49 205 -255 68 -354 -22 -17 -48 -30 -57 -30 -9 0 -92 51 -186 114 -472
316 -1473 980 -1497 992 -15 8 -56 14 -91 14 -87 0 -149 -39 -189 -120 l-28
-55 20 -365 c10 -201 29 -549 40 -773 l22 -408 -27 -55 c-28 -57 -68 -94 -124
-113 -104 -35 -223 21 -267 124 -11 28 -29 303 -49 760 -4 72 -8 155 -10 185
-15 214 -40 769 -39 880 1 119 4 144 28 214 65 192 226 348 421 409 68 21 87
24 183 26 l83 1 157 -138z m-1244 -1844 c3 -46 8 -140 12 -209 l6 -127 -133
-6 c-74 -3 -516 -10 -984 -16 -467 -6 -1124 -15 -1460 -20 -1115 -17 -1114
-17 -1160 7 -65 34 -106 90 -120 164 -15 80 43 186 120 220 48 21 115 23 1400
40 462 6 1043 14 1290 18 248 4 579 8 736 9 l287 2 6 -82z"/>
<path d="M11300 7408 c-291 -20 -570 -145 -789 -352 -173 -164 -321 -452 -362
-705 -15 -95 -16 -303 0 -391 54 -312 184 -552 410 -753 360 -321 881 -406
1331 -218 274 114 509 337 640 606 108 224 151 487 116 721 -44 297 -157 527
-357 725 -270 268 -610 394 -989 367z m335 -458 c144 -46 272 -127 373 -235
263 -281 292 -725 68 -1038 -56 -79 -186 -202 -258 -245 -128 -76 -323 -119
-488 -108 -335 21 -643 271 -731 591 -85 310 -8 604 219 832 100 101 218 167
372 210 75 21 101 23 230 19 115 -3 159 -8 215 -26z"/>
</g>
</svg>
