<?xml version="1.0" standalone="no"?>
<!DOCTYPE svg PUBLIC "-//W3C//DTD SVG 20010904//EN"
 "http://www.w3.org/TR/2001/REC-SVG-20010904/DTD/svg10.dtd">
<svg version="1.0" xmlns="http://www.w3.org/2000/svg"
 width="1440.000000pt" height="1440.000000pt" viewBox="0 0 1440.000000 1440.000000"
 preserveAspectRatio="xMidYMid meet">
<metadata>
Created by potrace 1.16, written by Peter Selinger 2001-2019
</metadata>
<g transform="translate(0.000000,1440.000000) scale(0.100000,-0.100000)"
fill="#000000" stroke="none">
<path d="M11067 8379 c-427 -63 -754 -295 -961 -683 -44 -83 -98 -244 -117
-346 -20 -110 -17 -345 5 -455 105 -511 489 -894 1001 -995 94 -19 133 -22
270 -18 170 5 199 11 365 65 298 98 539 297 698 578 117 207 174 473 153 707
-38 400 -240 741 -568 955 -243 159 -568 233 -846 192z m306 -430 c243 -37
495 -230 602 -461 59 -128 78 -230 73 -388 -6 -164 -31 -250 -110 -384 -127
-213 -297 -335 -537 -386 -235 -51 -475 -1 -657 135 -198 149 -305 334 -334
581 -26 220 36 428 181 609 187 232 476 341 782 294z"/>
<path d="M7090 8283 c-162 -18 -248 -42 -384 -106 -287 -137 -515 -427 -581
-739 -33 -156 -31 -277 12 -526 8 -51 13 -95 10 -98 -4 -5 -142 -22 -707 -90
-118 -14 -231 -27 -250 -29 -37 -5 -431 -52 -710 -85 -91 -11 -282 -33 -425
-50 -143 -17 -332 -39 -420 -50 -438 -54 -663 -81 -790 -95 -76 -9 -171 -22
-210 -30 -221 -46 -418 -241 -480 -477 -25 -94 -17 -242 19 -355 63 -197 244
-365 451 -418 76 -20 205 -18 390 5 77 10 221 27 320 39 99 11 272 32 385 46
209 25 355 42 445 51 28 2 79 9 115 14 36 6 124 17 195 25 72 8 204 24 295 34
181 22 386 46 523 61 49 6 103 13 120 15 32 5 344 42 592 71 72 8 179 21 239
29 61 8 112 13 114 11 2 -2 12 -57 22 -122 34 -210 91 -327 213 -441 69 -64
184 -128 277 -154 76 -22 263 -17 345 9 193 60 349 212 422 410 44 116 43 235
-3 485 -2 16 -13 83 -24 150 -10 67 -24 154 -30 192 -6 39 -31 186 -54 328
-23 142 -39 260 -35 263 4 2 31 -1 60 -6 30 -6 65 -13 79 -15 37 -7 356 -74
785 -165 209 -45 400 -85 425 -91 212 -44 260 -45 376 -8 130 42 240 129 324
256 70 106 91 175 97 313 6 130 -8 204 -57 299 -90 179 -228 289 -425 341 -68
18 -273 93 -530 195 -52 20 -784 300 -1050 401 -49 19 -101 39 -115 45 -99 43
-161 58 -250 61 -52 2 -106 2 -120 1z m197 -459 c38 -14 88 -34 113 -45 51
-21 380 -146 575 -219 72 -26 141 -53 155 -59 14 -5 90 -35 170 -66 517 -199
677 -258 735 -272 79 -18 125 -50 153 -105 43 -87 18 -194 -57 -247 -58 -41
-4 -50 -976 154 -60 13 -175 37 -255 54 -80 17 -235 50 -345 72 -110 23 -229
47 -265 55 -72 15 -117 10 -170 -16 -56 -29 -97 -84 -114 -153 -6 -25 33 -302
69 -492 8 -44 22 -129 30 -190 8 -60 19 -132 25 -160 25 -125 110 -664 110
-699 0 -128 -139 -231 -264 -196 -60 16 -121 70 -140 123 -9 23 -32 143 -52
267 -20 124 -47 290 -60 370 -35 204 -82 496 -149 919 -51 326 -46 431 31 589
46 93 160 212 256 265 140 78 304 98 425 51z m-1062 -1456 c3 -7 9 -40 14 -73
4 -33 19 -120 31 -193 13 -73 21 -134 19 -136 -2 -2 -166 -22 -364 -45 -310
-37 -430 -51 -624 -76 -20 -2 -83 -9 -141 -16 -58 -6 -157 -17 -220 -25 -63
-8 -151 -19 -195 -24 -44 -5 -267 -31 -495 -59 -672 -82 -1360 -162 -1433
-168 -114 -9 -198 40 -232 136 -26 75 -14 144 37 206 56 67 15 59 718 144 184
23 371 46 415 51 44 6 215 26 380 45 372 43 581 68 845 100 408 50 696 85 735
89 22 3 96 12 165 20 69 9 154 18 190 22 36 3 67 7 69 10 10 10 82 3 86 -8z"/>
</g>
</svg>
