<?xml version="1.0" standalone="no"?>
<!DOCTYPE svg PUBLIC "-//W3C//DTD SVG 20010904//EN"
 "http://www.w3.org/TR/2001/REC-SVG-20010904/DTD/svg10.dtd">
<svg version="1.0" xmlns="http://www.w3.org/2000/svg"
 width="1440.000000pt" height="1440.000000pt" viewBox="0 0 1440.000000 1440.000000"
 preserveAspectRatio="xMidYMid meet">
<metadata>
Created by potrace 1.16, written by Peter Selinger 2001-2019
</metadata>
<g transform="translate(0.000000,1440.000000) scale(0.100000,-0.100000)"
fill="#000000" stroke="none">
<path d="M10930 9374 c-148 -28 -194 -38 -250 -56 -435 -139 -761 -499 -857
-948 -14 -65 -18 -127 -17 -265 0 -167 3 -188 31 -295 67 -252 196 -467 384
-636 80 -72 143 -116 249 -172 205 -109 355 -146 595 -146 223 0 351 30 555
128 174 83 308 194 460 382 22 27 83 130 114 192 147 293 170 667 60 974 -58
160 -136 292 -250 423 -175 200 -418 338 -700 401 -68 15 -325 27 -374 18z
m335 -449 c33 -9 101 -36 151 -60 143 -69 245 -155 326 -274 102 -150 138
-260 145 -451 5 -118 3 -147 -16 -220 -43 -169 -162 -355 -288 -455 -230 -181
-570 -232 -823 -124 -251 107 -406 270 -489 515 -46 138 -54 314 -20 447 102
399 446 659 849 642 58 -2 132 -12 165 -20z"/>
<path d="M8725 8334 c-11 -2 -198 -8 -415 -14 -217 -6 -523 -15 -680 -20 -157
-5 -384 -12 -505 -15 -342 -8 -424 -17 -552 -60 -259 -87 -496 -294 -622 -543
-30 -59 -78 -191 -85 -234 -3 -19 -8 -42 -11 -51 -4 -8 -10 -55 -13 -103 l-7
-87 -40 -13 c-22 -6 -119 -31 -215 -53 -96 -23 -193 -46 -215 -52 -22 -5 -49
-11 -61 -13 -11 -2 -49 -11 -85 -20 -35 -8 -102 -24 -149 -35 -47 -11 -177
-43 -290 -70 -113 -27 -324 -77 -470 -111 -146 -34 -382 -90 -525 -124 -143
-35 -332 -80 -420 -101 -733 -170 -836 -198 -920 -246 -182 -104 -310 -308
-322 -514 -7 -118 14 -225 67 -330 68 -138 170 -238 305 -300 153 -71 283 -77
495 -25 74 18 182 44 240 57 58 14 139 33 180 43 41 10 194 45 340 79 146 34
299 70 340 81 41 11 122 31 180 44 594 139 660 155 1010 239 124 30 326 78
450 107 124 29 266 63 315 75 50 12 93 20 96 16 4 -3 53 -169 109 -369 127
-454 141 -489 233 -590 126 -136 297 -212 481 -212 303 0 552 199 627 500 38
150 27 220 -116 720 -31 108 -137 492 -175 630 -43 157 -45 143 30 156 36 7
103 19 150 28 182 34 308 57 365 67 33 5 166 30 295 55 279 54 440 85 650 124
211 39 276 55 340 83 148 66 277 211 338 381 32 89 36 244 9 346 -54 206 -218
384 -410 444 -93 29 -258 44 -342 30z m203 -440 c75 -16 132 -98 132 -189 0
-64 -14 -97 -62 -142 -42 -40 -58 -46 -203 -73 -149 -27 -306 -57 -365 -69
-43 -10 -124 -23 -135 -22 -2 0 -19 -5 -37 -10 -18 -5 -60 -14 -93 -19 -71
-10 -407 -73 -760 -140 -27 -6 -135 -26 -240 -45 -104 -19 -210 -41 -234 -47
-75 -20 -137 -90 -155 -175 -7 -32 -2 -60 44 -228 12 -44 26 -93 30 -110 23
-87 51 -189 73 -265 27 -93 102 -362 197 -708 70 -253 71 -278 17 -359 -74
-109 -218 -123 -321 -32 -38 33 -53 73 -111 284 -15 55 -38 136 -50 180 -13
44 -42 150 -65 235 -24 85 -64 232 -91 325 -26 94 -87 312 -135 485 -87 314
-87 315 -88 435 0 105 3 130 27 200 69 205 240 366 443 419 82 21 128 24 934
47 388 11 811 24 940 28 230 7 252 7 308 -5z m-2983 -1229 c15 -55 41 -145 56
-199 16 -55 28 -100 27 -101 -2 0 -46 -11 -98 -24 -103 -24 -182 -43 -385 -91
-355 -85 -457 -109 -540 -128 -153 -36 -382 -90 -555 -132 -235 -56 -454 -108
-535 -126 -67 -16 -259 -62 -580 -139 -82 -20 -177 -42 -210 -50 -33 -7 -119
-27 -191 -44 -73 -17 -152 -31 -175 -31 -89 1 -160 54 -195 146 -35 92 13 204
107 251 24 13 152 48 284 78 132 31 285 67 340 80 55 13 150 36 210 50 61 14
164 39 230 55 106 25 356 84 530 125 33 8 134 32 225 54 91 22 359 86 595 141
237 56 518 123 625 149 107 26 198 45 201 42 4 -3 19 -51 34 -106z"/>
</g>
</svg>
