<?xml version="1.0" standalone="no"?>
<!DOCTYPE svg PUBLIC "-//W3C//DTD SVG 20010904//EN"
 "http://www.w3.org/TR/2001/REC-SVG-20010904/DTD/svg10.dtd">
<svg version="1.0" xmlns="http://www.w3.org/2000/svg"
 width="1440.000000pt" height="1440.000000pt" viewBox="0 0 1440.000000 1440.000000"
 preserveAspectRatio="xMidYMid meet">
<metadata>
Created by potrace 1.16, written by Peter Selinger 2001-2019
</metadata>
<g transform="translate(0.000000,1440.000000) scale(0.100000,-0.100000)"
fill="#000000" stroke="none">
<path d="M10834 9555 c-181 -32 -398 -120 -540 -220 -152 -108 -339 -331 -410
-490 -150 -335 -161 -679 -33 -1003 145 -368 457 -650 835 -756 138 -38 240
-49 393 -43 207 9 327 40 516 132 377 183 635 549 691 978 41 319 -51 656
-254 922 -180 237 -445 402 -757 471 -100 22 -340 27 -441 9z m422 -448 c200
-62 368 -185 472 -346 156 -240 178 -554 58 -808 -105 -221 -267 -365 -492
-439 -148 -48 -292 -56 -435 -25 -323 72 -555 296 -640 618 -28 106 -30 279
-5 383 77 315 317 554 629 625 39 10 77 19 82 21 6 2 64 2 130 0 91 -3 139
-10 201 -29z"/>
<path d="M8680 8470 c-36 -5 -263 -29 -505 -54 -242 -25 -462 -48 -490 -51
-27 -3 -228 -23 -445 -45 -563 -56 -567 -57 -652 -79 -162 -42 -314 -123 -445
-238 -119 -104 -252 -307 -301 -463 -23 -70 -52 -206 -52 -240 0 -11 -2 -20
-4 -20 -2 0 -131 -34 -287 -76 -156 -41 -370 -97 -476 -124 -106 -27 -225 -58
-265 -69 -153 -41 -572 -151 -798 -209 -129 -34 -296 -78 -370 -97 -74 -20
-227 -60 -340 -89 -682 -177 -710 -185 -804 -234 -131 -68 -251 -218 -303
-379 -69 -212 -4 -471 162 -638 115 -116 297 -195 449 -195 72 0 145 16 486
106 157 42 364 96 460 121 96 24 274 71 395 103 121 32 335 88 475 124 140 36
323 84 405 106 83 22 263 69 400 105 335 87 491 127 609 159 55 15 102 23 106
19 4 -4 22 -57 40 -118 35 -119 145 -484 190 -631 45 -147 85 -219 170 -304
210 -211 474 -256 749 -129 69 32 98 53 165 121 166 168 228 381 175 606 -12
53 -59 210 -159 542 -56 186 -179 598 -196 661 -3 11 3 19 18 23 13 4 111 29
218 57 107 27 310 80 450 116 140 36 271 69 290 74 19 4 87 21 150 37 63 17
214 56 335 87 449 115 478 127 596 245 161 162 224 381 169 594 -42 167 -149
310 -298 399 -132 80 -265 101 -472 77z m228 -436 c80 -33 124 -98 125 -183 0
-91 -57 -175 -133 -195 -14 -3 -131 -34 -260 -67 -129 -33 -302 -78 -385 -99
-160 -42 -452 -117 -705 -182 -85 -22 -182 -46 -215 -53 -174 -40 -456 -119
-495 -138 -59 -30 -110 -111 -110 -176 0 -42 50 -220 225 -796 200 -655 218
-722 210 -763 -30 -160 -195 -236 -333 -152 -60 37 -88 104 -197 480 -56 193
-108 366 -181 600 -35 113 -74 246 -88 295 -13 50 -46 162 -74 250 -63 201
-72 246 -72 352 0 199 94 384 258 509 125 96 200 114 647 158 198 20 421 43
495 51 74 8 248 26 385 40 138 14 270 27 295 30 25 3 65 7 90 9 105 11 270 28
335 35 110 13 143 12 183 -5z m-3050 -1237 c7 -23 28 -96 48 -162 19 -66 41
-137 49 -157 8 -20 11 -39 7 -41 -4 -3 -86 -25 -182 -50 -96 -25 -290 -76
-430 -112 -140 -37 -424 -111 -630 -165 -587 -153 -1031 -269 -1470 -385 -429
-114 -515 -129 -573 -102 -118 56 -161 192 -97 303 16 29 44 61 62 72 34 21
167 59 458 132 91 23 237 61 325 85 88 24 268 71 400 105 132 34 359 93 505
132 331 87 368 97 564 148 87 22 191 49 230 60 70 18 237 62 551 144 88 24
162 41 165 39 2 -3 11 -23 18 -46z"/>
</g>
</svg>
