<?xml version="1.0" standalone="no"?>
<!DOCTYPE svg PUBLIC "-//W3C//DTD SVG 20010904//EN"
 "http://www.w3.org/TR/2001/REC-SVG-20010904/DTD/svg10.dtd">
<svg version="1.0" xmlns="http://www.w3.org/2000/svg"
 width="1440.000000pt" height="1440.000000pt" viewBox="0 0 1440.000000 1440.000000"
 preserveAspectRatio="xMidYMid meet">
<metadata>
Created by potrace 1.16, written by Peter Selinger 2001-2019
</metadata>
<g transform="translate(0.000000,1440.000000) scale(0.100000,-0.100000)"
fill="#000000" stroke="none">
<path d="M10870 9633 c-324 -51 -569 -176 -774 -394 -631 -671 -358 -1765 516
-2065 215 -73 474 -86 702 -34 58 13 202 68 277 105 166 83 380 270 474 414
243 372 286 807 120 1204 -117 278 -319 495 -588 633 -200 103 -373 145 -580
143 -67 -1 -133 -4 -147 -6z m355 -448 c89 -23 251 -107 325 -167 218 -180
334 -473 296 -753 -46 -338 -280 -605 -616 -701 -90 -25 -327 -26 -420 -2 -90
25 -253 108 -327 168 -264 213 -370 602 -252 924 104 284 328 478 629 542 82
17 282 11 365 -11z"/>
<path d="M8640 8515 c-52 -7 -171 -23 -265 -34 -93 -12 -253 -32 -355 -46
-694 -91 -1121 -145 -1230 -156 -120 -12 -188 -25 -270 -51 -380 -122 -655
-433 -735 -833 -9 -44 -19 -83 -23 -86 -4 -3 -63 -21 -132 -38 -69 -18 -228
-61 -355 -96 -126 -34 -318 -86 -425 -115 -107 -28 -265 -71 -350 -95 -150
-41 -271 -74 -775 -210 -132 -35 -256 -69 -275 -75 -44 -12 -151 -41 -255 -69
-207 -55 -566 -152 -615 -167 -210 -62 -375 -229 -441 -446 -43 -139 -24 -330
45 -466 110 -216 337 -356 576 -354 99 1 144 11 650 150 201 55 457 125 570
155 113 31 270 74 350 96 80 22 208 56 285 76 126 33 460 123 760 205 229 62
563 153 628 170 49 13 69 15 72 7 18 -57 58 -189 80 -262 84 -277 178 -577
197 -624 63 -158 191 -279 373 -352 204 -82 478 -31 647 120 143 129 219 296
219 481 0 104 -14 164 -111 475 -117 379 -156 505 -205 665 -25 85 -53 174
-60 197 -8 24 -11 45 -7 47 4 2 75 23 157 46 83 23 245 68 360 101 116 33 300
85 410 116 302 85 596 169 824 234 57 17 127 41 155 55 198 94 346 331 346
555 -1 211 -106 418 -267 525 -165 109 -300 134 -553 99z m270 -436 c98 -42
145 -169 98 -264 -15 -30 -60 -75 -88 -90 -26 -13 -237 -74 -810 -235 -179
-50 -354 -100 -390 -111 -70 -21 -440 -126 -580 -164 -163 -45 -289 -84 -319
-99 -46 -24 -89 -84 -102 -141 -13 -59 -19 -35 102 -430 44 -143 96 -312 115
-375 20 -63 51 -162 69 -220 78 -240 155 -510 155 -540 0 -122 -98 -220 -221
-220 -53 0 -136 46 -166 91 -24 36 -69 172 -209 634 -31 99 -66 215 -80 258
-41 130 -70 224 -127 412 -30 99 -77 248 -103 330 -47 148 -48 152 -48 285 0
124 2 141 28 210 73 192 222 340 401 400 37 12 187 36 385 60 179 22 357 45
395 50 39 6 210 28 380 50 171 22 348 44 395 50 382 51 601 78 633 79 21 1 60
-8 87 -20z m-3086 -1226 c3 -10 29 -94 57 -188 28 -93 52 -178 53 -189 1 -16
-38 -29 -294 -97 -162 -43 -342 -92 -400 -108 -58 -16 -181 -49 -275 -75 -93
-25 -287 -78 -430 -117 -593 -161 -893 -242 -940 -254 -27 -7 -151 -41 -275
-75 -379 -104 -523 -140 -563 -140 -76 0 -163 58 -193 129 -31 73 -11 176 44
234 41 43 58 50 327 122 138 37 408 109 600 162 193 52 391 105 440 118 50 14
122 33 160 44 39 10 223 60 410 110 187 50 356 95 375 101 19 5 67 18 105 29
39 11 95 27 125 35 30 8 132 35 225 61 216 60 417 113 432 114 6 1 14 -7 17
-16z"/>
</g>
</svg>
