<?xml version="1.0" standalone="no"?>
<!DOCTYPE svg PUBLIC "-//W3C//DTD SVG 20010904//EN"
 "http://www.w3.org/TR/2001/REC-SVG-20010904/DTD/svg10.dtd">
<svg version="1.0" xmlns="http://www.w3.org/2000/svg"
 width="1440.000000pt" height="1440.000000pt" viewBox="0 0 1440.000000 1440.000000"
 preserveAspectRatio="xMidYMid meet">
<metadata>
Created by potrace 1.16, written by Peter Selinger 2001-2019
</metadata>
<g transform="translate(0.000000,1440.000000) scale(0.100000,-0.100000)"
fill="#000000" stroke="none">
<path d="M10875 9365 c-303 -49 -600 -214 -779 -435 -215 -266 -305 -534 -292
-870 6 -174 27 -268 98 -437 67 -162 131 -257 261 -392 174 -180 412 -308 662
-357 121 -24 359 -24 473 -1 484 98 868 461 988 934 77 303 42 600 -104 889
-145 287 -439 534 -739 623 -189 56 -400 73 -568 46z m403 -445 c199 -56 392
-202 496 -374 128 -213 154 -497 65 -726 -91 -236 -282 -418 -512 -490 -232
-73 -422 -60 -637 44 -220 105 -366 287 -436 542 -24 90 -30 284 -10 367 96
409 446 679 856 662 63 -2 134 -12 178 -25z"/>
<path d="M8740 8334 c-36 -2 -227 -8 -425 -14 -631 -18 -1035 -30 -1225 -35
-237 -7 -318 -13 -409 -31 -296 -61 -588 -289 -731 -574 -64 -128 -110 -302
-110 -419 l0 -57 -172 -42 c-95 -23 -252 -60 -348 -82 -96 -23 -296 -70 -445
-106 -148 -36 -299 -72 -335 -80 -36 -8 -110 -26 -165 -39 -55 -13 -199 -47
-320 -75 -121 -29 -303 -72 -405 -96 -102 -25 -213 -51 -248 -59 -34 -8 -90
-22 -125 -30 -34 -8 -127 -30 -207 -49 -80 -19 -215 -51 -300 -71 -85 -20
-182 -45 -214 -56 -151 -49 -291 -172 -364 -322 -60 -121 -75 -191 -69 -312
10 -178 67 -306 193 -432 65 -65 98 -89 165 -121 109 -52 173 -66 289 -65 85
1 146 13 600 122 278 67 525 126 550 132 25 5 155 36 290 69 135 32 324 77
420 99 268 63 393 93 800 190 400 95 689 163 704 165 10 1 16 -18 121 -394
118 -427 132 -461 226 -564 132 -144 291 -216 484 -216 284 0 522 176 616 455
35 102 33 262 -5 400 -83 302 -147 534 -157 565 -42 138 -155 566 -150 571 3
4 157 34 341 68 393 72 513 94 870 162 146 28 315 59 375 70 61 11 145 29 187
40 290 78 490 379 449 674 -22 161 -72 266 -174 369 -147 149 -311 203 -577
190z m220 -454 c66 -33 100 -95 100 -181 0 -63 -29 -119 -79 -153 -38 -26
-125 -46 -606 -135 -121 -23 -278 -52 -350 -66 -71 -13 -229 -42 -350 -64
-238 -44 -285 -53 -564 -107 -210 -41 -226 -45 -264 -82 -75 -71 -87 -142 -49
-282 80 -291 125 -454 142 -510 20 -66 170 -606 216 -780 31 -113 27 -159 -19
-227 -38 -55 -90 -85 -161 -91 -86 -7 -178 50 -208 127 -5 14 -82 285 -170
601 -204 730 -215 771 -238 855 -10 39 -33 124 -51 190 -28 101 -33 137 -34
230 0 95 4 121 29 195 71 211 234 368 442 425 59 16 209 24 770 40 132 4 490
15 795 24 305 10 568 15 584 13 17 -3 46 -13 65 -22z m-2990 -1305 c29 -104
53 -194 54 -200 0 -5 -51 -22 -114 -37 -159 -39 -413 -100 -615 -148 -93 -22
-199 -47 -235 -55 -36 -9 -150 -36 -255 -61 -483 -113 -935 -221 -1205 -286
-162 -39 -329 -78 -370 -88 -41 -10 -147 -35 -235 -56 -248 -58 -299 -57 -375
13 -83 74 -89 204 -15 291 51 58 48 58 520 167 105 24 276 65 380 90 403 96
572 137 630 150 93 21 351 83 550 130 99 24 250 60 335 80 85 20 191 45 235
55 44 11 159 38 255 61 96 23 225 54 285 69 61 15 113 24 116 21 4 -3 30 -91
59 -196z"/>
</g>
</svg>
