<?xml version="1.0" standalone="no"?>
<!DOCTYPE svg PUBLIC "-//W3C//DTD SVG 20010904//EN"
 "http://www.w3.org/TR/2001/REC-SVG-20010904/DTD/svg10.dtd">
<svg version="1.0" xmlns="http://www.w3.org/2000/svg"
 width="1440.000000pt" height="1440.000000pt" viewBox="0 0 1440.000000 1440.000000"
 preserveAspectRatio="xMidYMid meet">
<metadata>
Created by potrace 1.16, written by Peter Selinger 2001-2019
</metadata>
<g transform="translate(0.000000,1440.000000) scale(0.100000,-0.100000)"
fill="#000000" stroke="none">
<path d="M7343 8298 c-247 -16 -465 -115 -654 -295 -139 -133 -240 -304 -295
-498 -27 -94 -29 -112 -29 -290 0 -104 7 -311 15 -460 8 -148 14 -288 15 -310
l0 -40 -445 -6 c-245 -4 -665 -10 -935 -14 -269 -4 -902 -13 -1405 -20 l-915
-12 -82 -25 c-229 -69 -404 -263 -449 -496 -17 -91 -17 -145 1 -245 41 -235
229 -435 470 -503 70 -20 226 -20 1325 -4 366 5 1007 14 1425 20 418 5 850 12
961 15 l200 4 64 -71 c186 -207 468 -274 730 -171 192 75 345 261 388 470 16
79 15 103 -12 628 -16 300 -27 547 -25 549 2 2 310 -201 684 -450 374 -250
696 -458 715 -464 113 -32 312 12 427 96 183 134 273 306 274 519 0 160 -43
285 -138 402 -70 86 -169 160 -256 191 -34 12 -83 47 -161 117 -62 55 -141
125 -176 155 -36 30 -103 89 -150 130 -47 42 -119 105 -160 140 -42 36 -202
175 -355 310 -154 134 -350 305 -435 379 -85 75 -168 148 -185 164 -79 74
-209 100 -432 85z m325 -566 c235 -205 238 -209 444 -387 56 -49 164 -144 239
-210 74 -66 164 -145 200 -175 35 -30 84 -73 109 -96 25 -22 59 -52 75 -66 17
-14 107 -92 200 -174 193 -169 208 -180 275 -200 166 -49 205 -255 68 -354
-22 -17 -48 -30 -57 -30 -9 0 -92 51 -186 114 -472 316 -1473 980 -1497 992
-15 8 -56 14 -91 14 -87 0 -149 -40 -189 -120 l-28 -55 30 -560 c16 -308 34
-656 41 -772 l11 -213 -27 -55 c-28 -58 -68 -95 -124 -114 -104 -35 -223 21
-267 124 -12 29 -22 193 -54 835 -6 113 -18 347 -27 520 -9 173 -17 380 -17
460 0 131 3 152 28 224 66 192 227 348 421 409 68 21 87 24 183 26 l83 1 157
-138z m-1244 -1844 c3 -46 8 -140 12 -209 l6 -127 -133 -6 c-74 -3 -534 -11
-1024 -17 -489 -6 -1257 -17 -1705 -23 -792 -12 -816 -12 -860 6 -73 31 -117
85 -135 166 -10 50 12 125 51 170 65 77 -5 71 1163 88 575 8 1271 18 1546 23
275 4 629 9 786 9 l287 2 6 -82z"/>
<path d="M11300 7408 c-291 -20 -570 -145 -789 -352 -173 -164 -321 -452 -362
-705 -15 -95 -16 -303 0 -391 54 -312 184 -552 410 -753 360 -321 881 -406
1331 -218 274 114 509 337 640 606 108 224 151 487 116 721 -44 297 -156 526
-357 725 -268 267 -610 394 -989 367z m335 -458 c294 -94 506 -322 572 -613
22 -101 22 -291 -1 -382 -41 -158 -122 -291 -253 -415 -95 -90 -162 -131 -274
-169 -227 -76 -455 -64 -652 35 -207 105 -370 298 -428 509 -85 310 -6 608
220 834 98 98 219 166 371 208 75 21 101 23 230 19 115 -3 159 -8 215 -26z"/>
</g>
</svg>
